<?xml version="1.0" encoding="UTF-8" standalone="no"?>
<!DOCTYPE svg PUBLIC "-//W3C//DTD SVG 1.1//EN"
 "http://www.w3.org/Graphics/SVG/1.1/DTD/svg11.dtd">
<!-- Generated by graphviz version 2.38.0 (20140413.2041)
 -->
<!-- Title: models_diagram Pages: 1 -->
<svg width="918pt" height="115pt"
 viewBox="0.00 0.00 918.00 115.00" xmlns="http://www.w3.org/2000/svg" xmlns:xlink="http://www.w3.org/1999/xlink">
<g id="graph0" class="graph" transform="scale(1 1) rotate(0) translate(4 111)">
<title>models_diagram</title>
<polygon fill="none" stroke="none" points="-4,4 -4,-111 914,-111 914,4 -4,4"/>
<!-- _diagram_info -->
<g id="node1" class="node"><title>_diagram_info</title>
<text text-anchor="start" x="8" y="-78.1" font-family="Times,serif" font-size="13.00">Models diagram</text>
<text text-anchor="start" x="8" y="-64.1" font-family="Times,serif" font-size="13.00">Date: Apr 03 2017 &#45; 18:11</text>
<text text-anchor="start" x="8" y="-50.1" font-family="Times,serif" font-size="13.00">Migration version: 20170403210900</text>
<text text-anchor="start" x="8" y="-36.1" font-family="Times,serif" font-size="13.00">Generated by RailRoady 1.5.2</text>
<text text-anchor="start" x="8" y="-22.1" font-family="Times,serif" font-size="13.00">http://railroady.prestonlee.com</text>
</g>
<!-- Photo -->
<g id="node2" class="node"><title>Photo</title>
<path fill="none" stroke="black" d="M244,-0.5C244,-0.5 464,-0.5 464,-0.5 470,-0.5 476,-6.5 476,-12.5 476,-12.5 476,-94.5 476,-94.5 476,-100.5 470,-106.5 464,-106.5 464,-106.5 244,-106.5 244,-106.5 238,-106.5 232,-100.5 232,-94.5 232,-94.5 232,-12.5 232,-12.5 232,-6.5 238,-0.5 244,-0.5"/>
<text text-anchor="middle" x="354" y="-91.3" font-family="Times,serif" font-size="14.00">Photo</text>
<polyline fill="none" stroke="black" points="232,-83.5 476,-83.5 "/>
<text text-anchor="start" x="240" y="-68.3" font-family="Times,serif" font-size="14.00">id :integer</text>
<text text-anchor="start" x="240" y="-53.3" font-family="Times,serif" font-size="14.00">link :character varying</text>
<text text-anchor="start" x="240" y="-38.3" font-family="Times,serif" font-size="14.00">user_id :integer</text>
<text text-anchor="start" x="240" y="-23.3" font-family="Times,serif" font-size="14.00">created_at :timestamp without time zone</text>
<text text-anchor="start" x="240" y="-8.3" font-family="Times,serif" font-size="14.00">updated_at :timestamp without time zone</text>
</g>
<!-- ApplicationRecord -->
<g id="node3" class="node"><title>ApplicationRecord</title>
<ellipse fill="none" stroke="black" cx="571" cy="-53.5" rx="77.1866" ry="18"/>
<text text-anchor="middle" x="571" y="-49.8" font-family="Times,serif" font-size="14.00">ApplicationRecord</text>
</g>
<!-- User -->
<g id="node4" class="node"><title>User</title>
<path fill="none" stroke="black" d="M678,-8C678,-8 898,-8 898,-8 904,-8 910,-14 910,-20 910,-20 910,-87 910,-87 910,-93 904,-99 898,-99 898,-99 678,-99 678,-99 672,-99 666,-93 666,-87 666,-87 666,-20 666,-20 666,-14 672,-8 678,-8"/>
<text text-anchor="middle" x="788" y="-83.8" font-family="Times,serif" font-size="14.00">User</text>
<polyline fill="none" stroke="black" points="666,-76 910,-76 "/>
<text text-anchor="start" x="674" y="-60.8" font-family="Times,serif" font-size="14.00">id :integer</text>
<text text-anchor="start" x="674" y="-45.8" font-family="Times,serif" font-size="14.00">name :character varying</text>
<text text-anchor="start" x="674" y="-30.8" font-family="Times,serif" font-size="14.00">created_at :timestamp without time zone</text>
<text text-anchor="start" x="674" y="-15.8" font-family="Times,serif" font-size="14.00">updated_at :timestamp without time zone</text>
</g>
</g>
</svg>
